#!OML:ASF X:\für Bonn\!DataBase\2005_08_10_Bjorn_Final\c3d\bjorn.ASF
:FULLY-SPECIFIED
:DEGREES
333
root 0.851217 2.16362 17.6162 -430.042 -167.626 -718.204
lowerback 48.1879 4.03753 10.6316
upperback 27.6392 -5.5941 4.75771
thorax 11.8807 -8.85867 0.289106
lowerneck 4.10767 3.79159 -2.33889
upperneck 11.3891 4.81923 -12.106
head 3.30061 1.4233 -3.61808
rclavicle -1.47101e-014 0
rhumerus -248.411 -190.875 79.7306
rradius 73.9116
rwrist -69.3166
rhand -35.2161 -25.6264
rfingers 7.12502
rthumb -8.35335 -55.4412
lclavicle -1.47101e-014 0
lhumerus -68.4066 -18.9029 104.097
lradius 62.2728
lwrist 51.6688
lhand -29.9447 -335.803
lfingers 7.12502
lthumb -3.26409 54.1513
rfemur -93.1084 -64.4086 6.3638
rtibia 137.561
rfoot 27.9828 30.6841
rtoes 6.93218
lfemur 101.45 167.465 159.413
ltibia 110.237
lfoot 20.3943 3.15412
ltoes -4.91251
334
root 0.846693 2.16313 17.6208 -430.053 -167.743 -718.042
lowerback 47.9473 3.99428 10.8406
upperback 27.6783 -5.54119 4.77176
thorax 11.9761 -8.77417 0.173277
lowerneck 4.82138 3.65439 -2.12025
upperneck 11.5876 4.56079 -11.9125
head 3.22112 1.31264 -3.60265
rclavicle -4.51241e-014 7.95139e-016
rhumerus -248.465 -190.752 79.5962
rradius 74.1519
rwrist -69.4355
rhand -35.493 -25.6814
rfingers 7.12502
rthumb -8.62058 -55.4854
lclavicle -4.51241e-014 7.95139e-016
lhumerus -68.603 -19.0662 104.126
lradius 62.696
lwrist 51.5295
lhand -30.095 -335.593
lfingers 7.12502
lthumb -3.4092 54.3596
rfemur -93.0559 -64.4012 6.50243
rtibia 137.546
rfoot 27.8477 30.6492
rtoes 6.3118
lfemur 101.941 167.529 159.283
ltibia 109.221
lfoot 20.4019 2.95785
ltoes -5.74176
335
root 0.841357 2.1649 17.6267 -430.049 -167.841 -717.898
lowerback 47.684 3.95157 11.0107
upperback 27.709 -5.49237 4.76635
thorax 12.0604 -8.6884 0.0565814
lowerneck 5.51722 3.53916 -1.95522
upperneck 11.8246 4.32994 -11.6878
head 3.15837 1.2085 -3.56552
rclavicle 8.74653e-015 -1.27222e-014
rhumerus -248.524 -190.609 79.5189
rradius 74.3328
rwrist -69.5902
rhand -35.6392 -25.7297
rfingers 7.12502
rthumb -8.76166 -55.5279
lclavicle 8.74653e-015 -1.27222e-014
lhumerus -68.7766 -19.1856 104.132
lradius 63.0644
lwrist 51.3895
lhand -30.203 -335.377
lfingers 7.12502
lthumb -3.51346 54.5737
rfemur -92.9882 -64.3917 6.60526
rtibia 137.502
rfoot 27.7809 30.5707
rtoes 5.75312
lfemur 102.447 167.604 159.155
ltibia 108.179
lfoot 20.4071 2.85388
ltoes -5.94296
336
root 0.837084 2.16777 17.6354 -430.062 -167.921 -717.748
lowerback 47.4357 3.92531 11.1806
upperback 27.752 -5.43237 4.76863
thorax 12.1605 -8.60159 -0.0564
lowerneck 6.15562 3.4152 -1.83063
upperneck 12.0646 4.09054 -11.4121
head 3.10459 1.09832 -3.50125
rclavicle 1.55052e-014 -3.18055e-015
rhumerus -248.453 -190.417 79.4798
rradius 74.3923
rwrist -69.6728
rhand -35.7687 -25.8823
rfingers 7.12502
rthumb -8.88665 -55.6752
lclavicle 1.55052e-014 -3.18055e-015
lhumerus -68.9049 -19.3009 104.078
lradius 63.4431
lwrist 51.2294
lhand -30.3324 -335.106
lfingers 7.12502
lthumb -3.63841 54.8423
rfemur -92.8172 -64.3772 6.62583
rtibia 137.45
rfoot 27.6527 30.5597
rtoes 5.08817
lfemur 103.029 167.684 159.045
ltibia 107.087
lfoot 20.3791 2.83728
ltoes -5.81604
337
root 0.832523 2.17121 17.644 -430.063 -167.985 -717.586
lowerback 47.1864 3.878 11.3204
upperback 27.7728 -5.39349 4.74215
thorax 12.2281 -8.51963 -0.175909
lowerneck 6.77447 3.31901 -1.73725
upperneck 12.3077 3.88582 -11.1314
head 3.05793 1.00105 -3.42866
rclavicle 1.68967e-014 2.38542e-014
rhumerus -248.436 -190.271 79.4225
rradius 74.4428
rwrist -69.7783
rhand -35.8364 -25.9855
rfingers 7.12502
rthumb -8.95196 -55.7756
lclavicle 1.68967e-014 2.38542e-014
lhumerus -69.0484 -19.3002 103.967
lradius 63.8305
lwrist 51.0373
lhand -30.4251 -334.885
lfingers 7.12502
lthumb -3.72796 55.0626
rfemur -92.6715 -64.3788 6.65827
rtibia 137.391
rfoot 27.5269 30.5284
rtoes 4.48826
lfemur 103.6 167.772 158.938
ltibia 105.983
lfoot 20.3577 2.78177
ltoes -5.53102
338
root 0.827828 2.17518 17.6546 -430.077 -168.062 -717.426
lowerback 46.937 3.8442 11.4816
upperback 27.8226 -5.35291 4.7128
thorax 12.3357 -8.44022 -0.315946
lowerneck 7.23456 3.21476 -1.6345
upperneck 12.5831 3.68891 -10.8333
head 3.05225 0.904251 -3.35073
rclavicle -2.36554e-014 5.1684e-014
rhumerus -248.362 -190.193 79.3209
rradius 74.4837
rwrist -69.9058
rhand -35.9444 -26.1059
rfingers 7.12502
rthumb -9.05614 -55.8915
lclavicle -2.36554e-014 5.1684e-014
lhumerus -69.1481 -19.374 103.829
lradius 64.2401
lwrist 50.8315
lhand -30.537 -334.541
lfingers 7.12502
lthumb -3.836 55.4038
rfemur -92.4552 -64.3098 6.65176
rtibia 137.316
rfoot 27.4426 30.4578
rtoes 3.93438
lfemur 104.217 167.869 158.875
ltibia 104.857
lfoot 20.3257 2.86076
ltoes -4.8305
